# Blender v2.66 (sub 0) OBJ File: 'stairs2.blend'
# www.blender.org
o bench_Plane.001
v -0.173614 0.049151 3.075556
v -1.000000 0.089485 3.075598
v -0.173614 0.049151 -3.075640
v -1.000000 0.089485 -3.075598
v 0.402178 -0.021065 3.075638
v 0.402178 -0.021065 -3.075558
v 0.989989 -0.336611 3.075705
v 0.989989 -0.336611 -3.075491
v -1.789210 -1.640018 3.049020
v -1.789210 1.824934 3.049020
v 1.070236 -1.640055 3.045960
v 1.070236 1.824896 3.045960
v -1.789210 -1.640018 3.049020
v -1.789210 1.824934 3.049020
v 1.070236 -1.640055 3.045960
v 1.070236 1.824896 3.045960
v -1.789210 -1.640018 -3.055621
v -1.789210 1.824934 -3.055621
v 1.070236 -1.640055 -3.058681
v 1.070236 1.824896 -3.058681
v -1.789210 -1.640018 -3.055621
v -1.789210 1.824934 -3.055621
v 1.070236 -1.640055 -3.058681
v 1.070236 1.824896 -3.058681
v -1.272476 0.225720 3.075559
v -1.272476 0.225720 -3.075637
v -1.325457 0.460348 3.075551
v -1.325457 0.460348 -3.075644
v -1.280045 1.285333 3.075551
v -1.280045 1.285333 -3.075644
v -1.476838 1.754588 3.075495
v -1.476838 1.754588 -3.075701
v -0.173614 0.049151 3.075556
v -1.000000 0.089485 3.075598
v -0.173614 0.049151 -3.075640
v -1.000000 0.089485 -3.075598
v 0.402178 -0.021065 3.075638
v 0.402178 -0.021065 -3.075558
v 0.989989 -0.336611 3.075705
v 0.989989 -0.336611 -3.075491
v -1.272476 0.225720 3.075559
v -1.272476 0.225720 -3.075637
v -1.325457 0.460348 3.075551
v -1.325457 0.460348 -3.075644
v -1.280045 1.285333 3.075551
v -1.280045 1.285333 -3.075644
v -1.476838 1.754588 3.075495
v -1.476838 1.754588 -3.075701
vt 0.874920 0.976701
vt 0.709735 0.976700
vt 0.709735 0.015026
vt 0.874920 0.015028
vt 0.930934 0.011645
vt 0.930934 0.977181
vt 0.834657 0.978786
vt 0.834657 0.012361
vt 0.738242 0.979845
vt 0.738242 0.012834
vt 0.636957 0.999924
vt 0.636957 0.000087
vt 0.000076 0.000076
vt 0.000076 0.999913
vt 0.952313 0.012912
vt 0.952313 0.975584
vt 0.992319 0.010666
vt 0.992318 0.974399
vt 0.948091 0.009572
vt 0.948090 0.979398
vt 0.824357 0.979398
vt 0.824357 0.009572
vt 0.703709 0.980662
vt 0.703709 0.010657
vn 0.048750 0.998811 0.000000
vn 0.121049 0.992647 0.000000
vn 0.472976 0.881075 0.000000
vn 0.001070 0.000000 0.999999
vn -0.001070 0.000000 -0.999999
vn 0.447205 0.894432 0.000000
vn 0.975440 0.220265 0.000000
vn 0.998488 -0.054963 0.000000
vn 0.922188 0.386741 0.000000
vn -0.048750 -0.998811 0.000000
vn -0.121049 -0.992647 0.000000
vn -0.472976 -0.881075 0.000000
vn -0.447205 -0.894432 0.000000
vn -0.975440 -0.220265 0.000000
vn -0.998488 0.054963 0.000000
vn -0.922188 -0.386741 0.000000
s off
f 2/1/1 1/2/1 3/3/1 4/4/1
f 3/5/2 1/6/2 5/7/2 6/8/2
f 6/8/3 5/7/3 7/9/3 8/10/3
f 10/11/4 9/12/4 11/13/4 12/14/4
f 14/11/5 16/14/5 15/13/5 13/12/5
f 18/11/4 17/12/4 19/13/4 20/14/4
f 22/11/5 24/14/5 23/13/5 21/12/5
f 2/1/6 4/4/6 26/15/6 25/16/6
f 25/16/7 26/15/7 28/17/7 27/18/7
f 27/19/8 28/20/8 30/21/8 29/22/8
f 29/22/9 30/21/9 32/23/9 31/24/9
f 34/1/10 36/4/10 35/3/10 33/2/10
f 35/5/11 38/8/11 37/7/11 33/6/11
f 38/8/12 40/10/12 39/9/12 37/7/12
f 34/1/13 41/16/13 42/15/13 36/4/13
f 41/16/14 43/18/14 44/17/14 42/15/14
f 43/19/15 45/22/15 46/21/15 44/20/15
f 45/22/16 47/24/16 48/23/16 46/21/16
