# Blender v2.66 (sub 0) OBJ File: 'plants.blend'
# www.blender.org
mtllib bush2.mtl
o bush2_Icosphere.004
v -0.992801 0.127437 1.719924
v -0.258341 -0.609546 1.199601
v 0.016503 0.418266 2.037795
v -0.386295 1.002544 1.001421
v -0.966602 0.370717 0.650136
v -0.437441 -0.642614 0.164055
v 0.890867 -0.180579 1.804610
v 0.837496 0.960335 1.403064
v -0.145743 1.075554 0.090933
v -0.421422 -0.439239 -0.310396
v 0.667280 -0.934751 0.516110
v 0.800680 -0.679145 1.286042
v 0.878762 0.459085 2.284041
v 0.361536 1.092311 0.727364
v -0.172036 0.374790 -0.272639
v 0.531869 -0.728778 -0.268214
v 1.783245 -0.405201 1.841619
v 1.426413 1.274247 0.888976
v 0.449311 0.804643 -0.610236
v 0.747703 -0.698101 -1.107806
v 1.643081 -1.072178 0.351732
v 1.794134 -0.782747 1.223550
v 1.661249 0.601111 1.556075
v 1.199798 1.355374 0.001323
v 0.203533 0.275066 -1.247602
v 1.489751 -0.838947 -0.536382
v 2.051065 -0.198509 1.493894
v 2.244379 0.967898 0.332309
v 1.709846 1.177351 -0.994560
v 1.777429 -0.326107 -1.653057
v 2.089105 -1.167857 0.000000
v 2.089105 -0.906396 0.893472
v 2.902491 0.468384 1.001313
v 2.271328 1.195924 -0.417697
v 0.948603 0.495782 -1.808422
v 2.089105 -0.906396 -0.893472
v 3.076251 -0.360878 1.506937
v 3.284702 1.145658 0.695695
v 3.361672 0.918973 -1.154033
v 2.901416 -0.616583 -1.888000
v 3.076251 -1.167857 0.000000
v 3.076251 -0.906396 0.893472
v 3.215162 0.118665 1.261329
v 3.280463 1.237198 -0.031121
v 3.396883 0.280305 -1.960298
v 3.076251 -0.906396 -0.893472
v 4.252871 -0.540943 1.519744
v 4.423277 0.944809 0.963562
v 4.316263 0.911859 -0.668680
v 4.237896 -0.360878 -1.506937
v 4.237896 -1.167857 0.000000
v 4.237896 -0.906396 0.893472
v 4.288481 0.346216 1.656741
v 4.371074 1.018793 0.149221
v 4.029290 0.519919 -1.456844
v 4.237896 -0.906396 -0.893472
v 6.984609 -0.000000 0.350406
v 6.263874 -0.723600 -0.525720
v 6.622357 0.283524 -1.172330
v 6.627103 0.947459 -0.399443
v 6.263874 0.276385 0.850640
v 6.263873 -0.723600 0.525720
v 5.387616 -0.566868 -1.330688
v 5.310400 0.834392 -0.953589
v 5.271464 0.996942 0.813975
v 5.358750 -0.441305 1.346468
v 5.234997 -1.031373 0.000000
v 5.234997 -0.800469 -0.789055
v 5.325454 0.432285 -1.357963
v 5.350063 1.161772 0.017307
v 5.159310 0.139520 1.283081
v 5.234997 -0.800469 0.789055
v 1.273820 0.766395 1.737454
v 0.809719 0.766395 1.737454
v 1.273820 1.102999 1.417942
v 0.809719 1.102999 1.417942
v 3.180440 0.315652 1.296067
v 2.716339 0.315652 1.296067
v 3.180440 0.652256 0.976555
v 2.716339 0.652256 0.976555
v 5.131454 0.689503 1.144784
v 4.679906 0.779470 1.203101
v 5.152933 1.012733 0.812443
v 4.701385 1.102700 0.870760
v 4.353483 0.809964 -1.034523
v 4.809264 0.754042 -1.101797
v 4.440375 1.058034 -0.652031
v 4.896157 1.002113 -0.719304
v 3.968136 -0.417246 -1.575360
v 4.427401 -0.434547 -1.510815
v 3.986821 0.046398 -1.584033
v 4.446086 0.029096 -1.519489
v 1.591923 0.098989 -1.971714
v 2.051188 0.081687 -1.907170
v 1.610609 0.562632 -1.980387
v 2.069873 0.545331 -1.915843
v -0.187359 -0.097893 -1.009311
v 0.239986 -0.116747 -1.189336
v -0.184494 0.364330 -1.050920
v 0.242851 0.345476 -1.230945
v -0.054943 0.820817 -0.627158
v 0.346000 0.995000 -0.783023
v -0.002271 1.055008 -0.229955
v 0.398671 1.229191 -0.385821
v -0.749039 0.688433 0.841703
v -0.803312 0.728928 0.382569
v -0.425007 1.020565 0.832694
v -0.479280 1.061060 0.373560
v 0.149808 -0.463487 1.573527
v -0.297928 -0.356758 1.514111
v 0.204638 -0.086167 1.838127
v -0.243098 0.020562 1.778712
v 2.622682 -0.493845 1.447543
v 2.170739 -0.583789 1.392342
v 2.518982 -0.070302 1.606438
v 2.067039 -0.160246 1.551237
v 4.672852 0.084325 1.572239
v 4.259480 -0.012921 1.759473
v 4.559872 0.534187 1.556453
v 4.146500 0.436941 1.743688
v 5.888074 -0.436912 0.977275
v 5.514764 -0.571563 1.217894
v 5.836489 -0.004957 1.138964
v 5.463178 -0.139608 1.379584
v 6.847398 0.549522 -0.291131
v 6.928932 0.353233 0.121437
v 6.659173 0.916960 -0.079117
v 6.740707 0.720672 0.333452
v 2.835084 0.423800 -1.807657
v 3.299117 0.415923 -1.806474
v 2.841949 0.854270 -1.634342
v 3.305982 0.846393 -1.633159
v 4.644813 -0.011775 -1.520549
v 5.108512 0.003715 -1.509056
v 4.629261 0.452060 -1.518269
v 5.092962 0.467550 -1.506776
v 1.012899 -0.503412 -1.635623
v 1.476972 -0.506935 -1.632041
v 1.017140 -0.051334 -1.740487
v 1.481214 -0.054856 -1.736905
v 1.071712 0.644293 -1.707515
v 1.516560 0.695058 -1.585357
v 0.947640 0.953079 -1.384024
v 1.392489 1.003845 -1.261865
v 1.685777 1.194170 -0.904201
v 2.121573 1.209520 -0.745344
v 1.527995 1.305094 -0.482076
v 1.963791 1.320445 -0.323217
v 3.600025 1.000491 -0.908297
v 4.027926 0.907858 -0.754320
v 3.470444 1.116942 -0.478138
v 3.898346 1.024310 -0.324160
v 3.546629 1.272933 0.549658
v 3.992308 1.168156 0.625689
v 3.437316 1.114369 0.971910
v 3.882996 1.009592 1.047942
v 1.750523 1.073489 0.967668
v 2.196202 0.968712 1.043699
v 1.641210 0.914925 1.389920
v 2.086890 0.810147 1.465953
v 2.416536 1.216992 1.963395
v 2.374859 1.010995 2.377179
v 2.324736 0.415004 1.554889
v 2.283059 0.209007 1.968673
v 2.451166 1.216992 1.963395
v 2.409488 1.010995 2.377179
v 2.359366 0.415004 1.554889
v 2.317688 0.209007 1.968673
v 4.034144 0.757219 2.141227
v 4.310027 0.400129 2.032760
v 3.553996 0.615144 1.387728
v 3.829878 0.258053 1.279260
v 4.054888 0.781407 2.127667
v 4.330770 0.424316 2.019200
v 3.574740 0.639331 1.374168
v 3.850622 0.282240 1.265700
v 5.487755 0.495703 1.708823
v 5.811759 0.772523 1.525025
v 5.233480 0.242003 0.878480
v 5.557484 0.518824 0.694682
v 5.463979 0.520636 1.712315
v 5.787982 0.797457 1.528517
v 5.209703 0.266937 0.881971
v 5.533707 0.543758 0.698174
v 5.354163 1.332143 -0.126496
v 5.733051 1.307773 -0.393403
v 5.162319 0.671993 -0.320061
v 5.541207 0.647623 -0.586969
v 5.333939 1.345834 -0.151047
v 5.712827 1.321465 -0.417954
v 5.142095 0.685684 -0.344612
v 5.520983 0.661314 -0.611520
v 4.549792 1.479909 -0.068555
v 4.409755 1.455539 0.373243
v 4.819664 0.617228 -0.030600
v 4.679628 0.592858 0.411198
v 4.580750 1.493600 -0.061254
v 4.440714 1.469230 0.380544
v 4.850623 0.630919 -0.023298
v 4.710588 0.606550 0.418500
v 5.118545 0.925306 -1.534745
v 4.972474 1.000292 -1.100660
v 5.391177 0.095317 -1.299628
v 5.245107 0.170303 -0.865543
v 5.149346 0.940504 -1.530331
v 5.003276 1.015490 -1.096245
v 5.421978 0.110516 -1.295214
v 5.275909 0.185502 -0.861128
v 3.993181 1.226070 -1.553003
v 4.024038 0.912654 -1.893897
v 3.606824 0.606728 -1.018556
v 3.637680 0.293313 -1.359450
v 3.963535 1.239990 -1.564251
v 3.994391 0.926575 -1.905144
v 3.577178 0.620648 -1.029805
v 3.608033 0.307233 -1.370698
v 2.740362 0.244884 -2.179494
v 2.908475 -0.181438 -2.106164
v 2.344747 0.228800 -1.366033
v 2.512859 -0.197522 -1.292703
v 2.712531 0.234258 -2.197148
v 2.880642 -0.192065 -2.123818
v 2.316915 0.218173 -1.383687
v 2.485026 -0.208149 -1.310357
v 0.732142 0.984847 -1.704679
v 0.683465 0.604908 -1.966721
v 1.155128 0.494779 -1.072694
v 1.106451 0.114839 -1.334736
v 0.700711 0.982753 -1.690296
v 0.652034 0.602814 -1.952338
v 1.123696 0.492685 -1.058311
v 1.075019 0.112745 -1.320352
v -0.471771 1.008824 -0.808903
v -0.693486 0.739452 -1.114959
v 0.157108 0.367603 -0.700113
v -0.064607 0.098230 -1.006169
v -0.491159 0.999363 -0.781815
v -0.712874 0.729990 -1.087870
v 0.137720 0.358141 -0.673025
v -0.083996 0.088768 -0.979080
v -0.270486 1.322745 1.148911
v -0.636819 1.053372 1.241799
v 0.063049 0.681524 0.604779
v -0.303284 0.412150 0.697667
v -0.252482 1.313284 1.176938
v -0.618815 1.043911 1.269827
v 0.081052 0.672062 0.632807
v -0.285280 0.402688 0.725696
v 1.582480 1.692594 0.117883
v 1.312408 1.423221 -0.146483
v 2.220699 1.051373 0.119254
v 1.950626 0.781999 -0.145111
v 1.567929 1.683133 0.147848
v 1.297856 1.413760 -0.116517
v 2.206146 1.041911 0.149219
v 1.936074 0.772538 -0.115144
v 0.021562 0.951731 1.783498
v -0.159737 0.722734 1.842628
v 0.327004 0.616235 1.420716
v 0.145705 0.387238 1.479847
v 0.034687 0.948497 1.801153
v -0.146611 0.719500 1.860283
v 0.340129 0.613000 1.438371
v 0.158831 0.384003 1.497502
v 3.490752 0.951731 1.325890
v 3.490351 0.722734 1.516587
v 3.241408 0.616235 0.922488
v 3.241007 0.387238 1.113186
v 3.511621 0.948497 1.318930
v 3.511220 0.719500 1.509627
v 3.262277 0.613000 0.915528
v 3.261877 0.384003 1.106225
v 5.087152 0.697188 1.325890
v 5.086751 0.468192 1.516587
v 4.837807 0.361692 0.922488
v 4.837407 0.132695 1.113186
v 5.108020 0.693954 1.318930
v 5.107620 0.464957 1.509627
v 4.858676 0.358458 0.915528
v 4.858276 0.129461 1.106225
v 1.483515 0.697188 2.168590
v 1.483114 0.468192 2.359287
v 1.234171 0.361692 1.765188
v 1.233770 0.132695 1.955886
v 1.504384 0.693954 2.161630
v 1.503983 0.464957 2.352327
v 1.255040 0.358458 1.758228
v 1.254639 0.129461 1.948925
v 1.414622 1.384421 -0.743433
v 1.513800 1.534132 -0.505619
v 1.201545 0.971586 -0.394679
v 1.300723 1.121298 -0.156865
v 1.433924 1.374171 -0.747532
v 1.533102 1.523882 -0.509718
v 1.220847 0.961336 -0.398778
v 1.320025 1.111047 -0.160964
v 3.483646 1.384421 -0.291189
v 3.226037 1.534132 -0.296629
v 3.250818 0.971586 -0.627079
v 2.993209 1.121298 -0.632519
v 3.479591 1.374171 -0.271878
v 3.221982 1.523882 -0.277318
v 3.246763 0.961336 -0.607768
v 2.989154 1.111047 -0.613208
v 4.305616 1.457537 0.197032
v 4.048007 1.563197 0.090829
v 4.072788 0.926573 0.233537
v 3.815179 1.032234 0.127334
v 4.301561 1.463234 0.218139
v 4.043952 1.568895 0.111937
v 4.068733 0.932271 0.254644
v 3.811124 1.037931 0.148442
v 6.473887 0.912848 -0.711275
v 6.311554 1.136529 -0.822719
v 6.066674 0.533896 -0.878714
v 5.904341 0.757577 -0.990158
v 6.466416 0.915137 -0.690458
v 6.304083 1.138818 -0.801901
v 6.059203 0.536185 -0.857897
v 5.896869 0.759866 -0.969340
v 4.118401 0.578169 -1.331421
v 4.111808 0.289569 -1.405391
v 4.060848 0.722923 -1.891062
v 4.054255 0.434323 -1.965031
v 4.140585 0.579613 -1.330987
v 4.133992 0.291013 -1.404957
v 4.083032 0.724367 -1.890627
v 4.076440 0.435767 -1.964597
v 2.374923 0.574506 -1.352333
v 2.333333 0.287134 -1.419363
v 2.160623 0.726381 -1.870476
v 2.119033 0.439009 -1.937506
v 2.396279 0.574927 -1.358512
v 2.354688 0.287556 -1.425542
v 2.181978 0.726802 -1.876655
v 2.140388 0.439431 -1.943686
v 0.458817 0.574506 -0.919250
v 0.417226 0.287134 -0.986281
v 0.244516 0.726381 -1.437394
v 0.202926 0.439009 -1.504424
v 0.480172 0.574927 -0.925430
v 0.438582 0.287556 -0.992460
v 0.265872 0.726802 -1.443573
v 0.224281 0.439431 -1.510604
v 6.573731 0.194910 -1.457384
v 6.430960 0.022841 -1.654396
v 6.196683 0.035736 -1.045120
v 6.053911 -0.136332 -1.242133
v 6.563135 0.213625 -1.463029
v 6.420362 0.041556 -1.660042
v 6.186085 0.054451 -1.050766
v 6.043314 -0.117617 -1.247778
v 7.118617 0.535747 -0.687852
v 7.060531 0.343024 -0.907600
v 6.608521 0.408002 -0.440981
v 6.550433 0.215279 -0.660728
v 7.111361 0.553624 -0.698905
v 7.053273 0.360902 -0.918653
v 6.601263 0.425879 -0.452034
v 6.543176 0.233156 -0.671781
vt 0.323576 2.031397
vt 0.026557 1.990723
vt 0.385554 1.788593
vt -0.064906 2.369290
vt 0.652631 2.087060
vt 0.391469 2.307896
vt 2.249798 -0.027269
vt 2.482213 0.236461
vt 2.101407 0.340019
vt 0.146327 1.554730
vt 0.726849 1.649480
vt 1.353975 -1.213971
vt 1.452835 -0.903973
vt 1.172244 -0.894461
vt 0.989679 -1.405518
vt 0.930750 -1.259641
vt 1.789925 -0.069012
vt 1.933283 0.131574
vt 0.410385 1.512094
vt 1.287315 -0.698425
vt 1.020250 -1.038537
vt 2.289170 0.533712
vt 1.436144 -0.474375
vt 0.651559 -1.360216
vt 2.067461 0.776694
vt 1.854313 0.557163
vt 1.660993 0.315182
vt 1.741567 -0.327442
vt 1.599890 0.115352
vt 1.403926 -0.154355
vt 1.192470 -0.391979
vt 0.999886 -0.548652
vt 0.930428 -0.830700
vt 0.773051 -0.966497
vt 0.571896 -1.126858
vt 0.331781 -1.260413
vt 0.720830 -0.568748
vt 0.635749 -0.835146
vt 0.742367 -0.363802
vt 0.381885 -0.886396
vt 0.170703 -1.098716
vt 1.960350 0.981266
vt 1.788579 0.731446
vt 1.627066 0.464464
vt 1.456179 0.172499
vt 1.005006 0.142899
vt 0.930206 -0.213690
vt 1.181202 0.434313
vt 1.027345 0.326718
vt 1.348737 0.657016
vt 0.746681 0.073903
vt 0.610846 -0.086136
vt 0.377027 -0.313099
vt 0.209850 -0.509982
vt 0.142257 -0.733507
vt -0.092288 -0.900134
vt 1.693701 1.163181
vt 1.523713 0.910736
vt 1.216125 1.121979
vt 1.051447 0.882541
vt 0.918253 0.710066
vt 0.754224 0.536482
vt 0.552096 0.369676
vt 0.394342 0.169944
vt 0.240914 -0.033707
vt 0.136689 -0.297775
vt -0.108442 -0.447426
vt -0.319211 -0.606011
vt 1.374986 1.373922
vt -0.179099 1.480906
vt -0.211340 1.856071
vt -0.601781 1.630815
vt 0.072828 1.615781
vt -0.466687 1.289983
vt -0.034690 1.306932
vt 0.742970 1.622411
vt 0.561454 1.325917
vt 0.947692 1.292582
vt -0.469110 0.233830
vt -0.723165 -0.081884
vt -0.384889 -0.218789
vt -0.255013 0.487022
vt -0.046271 0.096190
vt -0.008705 0.937357
vt 0.351359 1.298649
vt -0.515085 -0.348435
vt -0.157835 -0.033244
vt 0.319228 0.519523
vt 0.139829 0.336247
vt 0.270489 1.109785
vt 0.799767 1.075534
vt 1.080341 1.524209
vt 0.643043 0.923036
vt 0.560813 0.738546
vt 0.000817 0.636891
vt 0.156256 0.636891
vt 0.156256 0.460942
vt 0.000817 0.460942
vt 0.000817 0.822408
vt 0.156256 0.822408
vt 0.156256 0.646459
vt 0.000817 0.646459
vt 0.006039 0.439095
vt 0.159802 0.439095
vt 0.159802 0.108475
vt 0.006039 0.108475
vt 0.177748 0.314766
vt 0.259872 0.314766
vt 0.259872 0.109978
vt 0.177748 0.109978
vn -0.778344 -0.080996 0.622547
vn -0.346385 -0.838649 0.420301
vn -0.287240 0.197760 0.937193
vn -0.599719 -0.784661 -0.156896
vn -0.436384 0.873928 0.213935
vn -0.953734 0.207007 -0.217963
vn -0.156621 -0.985900 0.058565
vn -0.006073 -0.553362 0.832881
vn -0.007324 0.893948 0.448103
vn -0.497024 0.804285 -0.325663
vn -0.716361 -0.475234 -0.510819
vn -0.101566 -0.854640 0.509171
vn 0.051881 0.260537 0.964049
vn -0.138218 0.987121 0.080233
vn -0.741020 0.281991 -0.609363
vn -0.200507 -0.963469 -0.177496
vn -0.187902 -0.943205 -0.273873
vn -0.123264 -0.988617 0.086001
vn 0.240608 -0.827906 0.506607
vn 0.356273 -0.428816 0.830134
vn 0.412488 0.520737 0.747429
vn 0.154393 0.929563 0.334727
vn -0.056368 0.996918 -0.054506
vn -0.436903 0.812616 -0.385632
vn -0.666341 0.199286 -0.718497
vn -0.379192 -0.751793 -0.539445
vn -0.109287 0.900937 -0.419904
vn -0.363567 0.326304 -0.872524
vn 0.033479 0.996490 -0.076357
vn -0.191656 -0.568529 -0.799982
vn -0.124302 -0.927946 -0.351329
vn -0.110721 -0.993072 -0.039094
vn 0.071047 -0.889920 0.450514
vn 0.440718 -0.165746 0.882168
vn 0.001617 0.588366 0.808557
vn 0.136876 0.927396 0.348094
vn -0.080996 -0.258095 0.962706
vn -0.136204 0.438032 0.888546
vn -0.032289 -0.876949 0.479476
vn -0.129612 0.858119 0.496811
vn 0.047792 0.998749 -0.013459
vn 0.138920 0.881558 -0.451125
vn 0.214179 0.302805 -0.928648
vn 0.017518 -0.595569 -0.803095
vn 0.006806 -0.931578 -0.363414
vn 0.000000 -1.000000 0.000000
vn 0.067141 -0.997742 0.000000
vn 0.053529 -0.904752 0.422529
vn 0.047578 -0.474197 0.879116
vn 0.024262 0.356059 0.934141
vn 0.039949 0.840510 0.540269
vn 0.044435 0.998383 -0.035188
vn 0.070650 0.931272 -0.357372
vn 0.238350 0.526841 -0.815821
vn 0.211158 -0.463027 -0.860805
vn 0.081423 -0.912046 -0.401868
vn 0.931059 -0.079226 0.356090
vn 0.529923 -0.792718 -0.301218
vn 0.669546 0.100833 -0.735862
vn 0.523759 -0.742698 0.417188
vn 0.619373 0.776543 -0.115238
vn 0.545915 0.290170 0.785974
vn 0.162786 -0.986633 0.000000
vn 0.190771 -0.546373 -0.815516
vn 0.055971 0.869167 -0.491317
vn 0.216010 0.817621 0.533677
vn 0.334697 -0.409131 0.848842
vn 0.113773 -0.918760 -0.378002
vn 0.123875 0.430403 -0.894070
vn 0.046541 0.998505 -0.027680
vn 0.298654 0.282418 0.911588
vn 0.154515 -0.903989 0.398633
vn 0.000000 0.688437 0.725272
vn 0.226325 0.690909 0.686575
vn 0.021821 0.836512 -0.547472
vn 0.138218 -0.024079 -0.990081
vn -0.389966 -0.080142 -0.917325
vn -0.490677 0.777490 -0.393323
vn -0.706290 0.692984 0.144597
vn -0.235176 -0.534898 0.811487
vn -0.042177 -0.359966 0.932005
vn 0.383923 0.128483 0.914365
vn 0.583605 -0.222602 0.780908
vn 0.897000 0.440779 0.032441
vn 0.008698 0.373333 -0.927641
vn 0.024567 0.005737 -0.999664
vn 0.005799 -0.225990 -0.974090
vn 0.098880 0.738456 -0.666982
vn 0.051698 0.970428 -0.235664
vn 0.268227 0.947203 -0.175604
vn 0.149419 0.912290 0.381268
vn -0.990753 0.131016 -0.034547
vn 0.990753 -0.131016 0.034547
vn -0.604114 -0.619129 0.501694
vn 0.604114 0.619129 -0.501694
vn 0.658467 -0.752037 0.028108
vn -0.658467 0.752037 -0.028108
vn 0.517411 -0.375774 0.768792
vn -0.517411 0.375774 -0.768792
vn -0.905515 -0.296609 -0.303385
vn 0.905515 0.296609 0.303354
vn -0.900052 -0.363628 -0.240028
vn 0.900052 0.363628 0.240028
vn 0.901761 -0.274392 0.333903
vn -0.901761 0.274392 -0.333903
vn 0.823115 0.394787 0.408124
vn -0.823145 -0.394787 -0.408124
vn 0.877712 0.190710 -0.439558
vn -0.877712 -0.190710 0.439558
vn 0.537187 0.400952 -0.742058
vn -0.537187 -0.400952 0.742058
vn -0.490921 0.400952 -0.773431
vn 0.490921 -0.400952 0.773431
vn 0.404584 0.400952 -0.821894
vn -0.404584 -0.400952 0.821894
vn -0.594470 0.275582 -0.755394
vn 0.594470 -0.275582 0.755394
vn -0.903195 0.275582 0.329051
vn 0.903195 -0.275582 -0.329051
vn -0.868709 0.492508 0.052217
vn 0.868709 -0.492508 -0.052217
vn 0.303446 0.492508 -0.815668
vn -0.303446 -0.492508 0.815668
vn 0.303446 -0.197150 -0.932218
vn -0.303446 0.197150 0.932218
vn 0.460280 -0.105106 -0.881497
vn -0.460280 0.105106 0.881497
vn -0.994812 -0.003265 0.101444
vn 0.994812 0.003265 -0.101444
vn -0.918912 0.041505 0.392224
vn 0.918912 -0.041505 -0.392224
vn 0.590899 -0.769097 0.243477
vn -0.590899 0.769097 -0.243477
vn 0.436964 -0.730338 0.525010
vn -0.436964 0.730338 -0.525010
usemtl Material.001
s 1
f 1/1/1 2/2/2 3/3/3
f 2/2/2 1/1/1 6/4/4
f 1/1/1 3/3/3 4/5/5
f 1/1/1 4/5/5 5/6/6
f 1/1/1 5/6/6 6/4/4
f 2/7/2 6/8/4 11/9/7
f 3/3/3 2/2/2 7/10/8
f 4/5/5 3/3/3 8/11/9
f 5/12/6 4/13/5 9/14/10
f 6/15/4 5/12/6 10/16/11
f 7/17/8 2/7/2 12/18/12
f 8/11/9 3/3/3 13/19/13
f 9/14/10 4/13/5 14/20/14
f 10/16/11 5/12/6 15/21/15
f 11/9/7 6/8/4 16/22/16
f 2/7/2 11/9/7 12/18/12
f 3/3/3 7/10/8 13/19/13
f 4/13/5 8/23/9 14/20/14
f 5/12/6 9/14/10 15/21/15
f 6/15/4 10/16/11 16/24/16
f 11/9/7 16/22/16 26/25/17 21/26/18
f 12/18/12 11/9/7 21/26/18 22/27/19
f 13/28/13 7/17/8 17/29/20 23/30/21
f 7/17/8 12/18/12 22/27/19 17/29/20
f 14/20/14 8/23/9 18/31/22 24/32/23
f 8/23/9 13/28/13 23/30/21 18/31/22
f 15/21/15 9/14/10 19/33/24 25/34/25
f 9/14/10 14/20/14 24/32/23 19/33/24
f 16/24/16 10/16/11 20/35/26 26/36/17
f 10/16/11 15/21/15 25/34/25 20/35/26
f 25/34/25 19/33/24 29/37/27 35/38/28
f 19/33/24 24/32/23 34/39/29 29/37/27
f 26/36/17 20/35/26 30/40/30 36/41/31
f 20/35/26 25/34/25 35/38/28 30/40/30
f 21/26/18 26/25/17 36/42/31 31/43/32
f 22/27/19 21/26/18 31/43/32 32/44/33
f 23/30/21 17/29/20 27/45/34 33/46/35
f 17/29/20 22/27/19 32/44/33 27/45/34
f 24/32/23 18/31/22 28/47/36 34/39/29
f 18/31/22 23/30/21 33/46/35 28/47/36
f 33/46/35 27/45/34 37/48/37 43/49/38
f 27/45/34 32/44/33 42/50/39 37/48/37
f 34/39/29 28/47/36 38/51/40 44/52/41
f 28/47/36 33/46/35 43/49/38 38/51/40
f 35/38/28 29/37/27 39/53/42 45/54/43
f 29/37/27 34/39/29 44/52/41 39/53/42
f 36/41/31 30/40/30 40/55/44 46/56/45
f 30/40/30 35/38/28 45/54/43 40/55/44
f 31/43/32 36/42/31 46/57/45 41/58/46
f 32/44/33 31/43/32 41/58/46 42/50/39
f 42/50/39 41/58/46 51/59/47 52/60/48
f 43/49/38 37/48/37 47/61/49 53/62/50
f 37/48/37 42/50/39 52/60/48 47/61/49
f 44/52/41 38/51/40 48/63/51 54/64/52
f 38/51/40 43/49/38 53/62/50 48/63/51
f 45/54/43 39/53/42 49/65/53 55/66/54
f 39/53/42 44/52/41 54/64/52 49/65/53
f 46/56/45 40/55/44 50/67/55 56/68/56
f 40/55/44 45/54/43 55/66/54 50/67/55
f 41/58/46 46/57/45 56/69/56 51/59/47
f 57/70/57 58/71/58 59/72/59
f 58/71/58 57/70/57 62/73/60
f 57/70/57 59/72/59 60/74/61
f 57/70/57 60/74/61 61/75/62
f 57/70/57 61/75/62 62/73/60
f 58/76/58 62/77/60 67/78/63
f 59/79/59 58/80/58 63/81/64
f 60/82/61 59/79/59 64/83/65
f 61/75/62 60/74/61 65/84/66
f 62/73/60 61/75/62 66/85/67
f 63/81/64 58/80/58 68/86/68
f 64/83/65 59/79/59 69/87/69
f 65/88/66 60/82/61 70/89/70
f 66/85/67 61/75/62 71/90/71
f 67/78/63 62/77/60 72/91/72
f 58/76/58 67/78/63 68/92/68
f 59/79/59 63/81/64 69/87/69
f 60/82/61 64/83/65 70/89/70
f 61/75/62 65/84/66 71/90/71
f 62/77/60 66/93/67 72/91/72
f 67/78/63 72/91/72 52/60/48 51/59/47
f 68/92/68 67/78/63 51/59/47 56/69/56
f 69/87/69 63/81/64 50/67/55 55/66/54
f 63/81/64 68/86/68 56/68/56 50/67/55
f 70/89/70 64/83/65 49/65/53 54/64/52
f 64/83/65 69/87/69 55/66/54 49/65/53
f 71/94/71 65/88/66 48/63/51 53/62/50
f 65/88/66 70/89/70 54/64/52 48/63/51
f 72/91/72 66/93/67 47/61/49 52/60/48
f 66/93/67 71/94/71 53/62/50 47/61/49
usemtl Material.002
f 74/95/73 73/96/73 75/97/73 76/98/73
f 78/95/73 77/96/73 79/97/73 80/98/73
f 82/95/74 81/96/74 83/97/74 84/98/74
f 86/95/75 85/96/75 87/97/75 88/98/75
f 90/95/76 89/96/76 91/97/76 92/98/76
f 94/95/76 93/96/76 95/97/76 96/98/76
f 98/95/77 97/96/77 99/97/77 100/98/77
f 102/99/78 101/100/78 103/101/78 104/102/78
f 106/99/79 105/100/79 107/101/79 108/102/79
f 110/99/80 109/100/80 111/101/80 112/102/80
f 114/99/81 113/100/81 115/101/81 116/102/81
f 118/99/82 117/100/82 119/101/82 120/102/82
f 122/99/83 121/100/83 123/101/83 124/102/83
f 126/99/84 125/100/84 127/101/84 128/102/84
f 130/99/85 129/100/85 131/101/85 132/102/85
f 134/99/86 133/100/86 135/101/86 136/102/86
f 138/99/87 137/100/87 139/101/87 140/102/87
f 142/99/88 141/100/88 143/101/88 144/102/88
f 146/99/89 145/100/89 147/101/89 148/102/89
f 150/99/90 149/100/90 151/101/90 152/102/90
f 154/99/91 153/100/91 155/101/91 156/102/91
f 158/99/91 157/100/91 159/101/91 160/102/91
f 162/103/92 161/104/92 163/105/92 164/106/92
f 166/103/93 168/106/93 167/105/93 165/104/93
f 170/103/94 169/104/94 171/105/94 172/106/94
f 174/103/95 176/106/95 175/105/95 173/104/95
f 178/103/96 177/104/96 179/105/96 180/106/96
f 182/103/97 184/106/97 183/105/97 181/104/97
f 186/103/98 185/104/98 187/105/98 188/106/98
f 190/103/99 192/106/99 191/105/99 189/104/99
f 194/103/100 193/104/100 195/105/100 196/106/100
f 198/103/101 200/106/101 199/105/101 197/104/101
f 202/103/102 201/104/102 203/105/102 204/106/102
f 206/103/103 208/106/103 207/105/103 205/104/103
f 210/103/104 209/104/104 211/105/104 212/106/104
f 214/103/105 216/106/105 215/105/105 213/104/105
f 218/103/106 217/104/106 219/105/106 220/106/106
f 222/103/107 224/106/107 223/105/107 221/104/107
f 226/103/108 225/104/108 227/105/108 228/106/108
f 230/103/109 232/106/109 231/105/109 229/104/109
f 234/103/110 233/104/110 235/105/110 236/106/110
f 238/103/111 240/106/111 239/105/111 237/104/111
f 242/103/112 241/104/112 243/105/112 244/106/112
f 246/103/113 248/106/113 247/105/113 245/104/113
f 250/103/114 249/104/114 251/105/114 252/106/114
f 254/103/115 256/106/115 255/105/115 253/104/115
f 258/107/116 257/108/116 259/109/116 260/110/116
f 262/107/117 264/110/117 263/109/117 261/108/117
f 266/107/118 265/108/118 267/109/118 268/110/118
f 270/107/119 272/110/119 271/109/119 269/108/119
f 274/107/118 273/108/118 275/109/118 276/110/118
f 278/107/119 280/110/119 279/109/119 277/108/119
f 282/107/118 281/108/118 283/109/118 284/110/118
f 286/107/119 288/110/119 287/109/119 285/108/119
f 290/107/120 289/108/120 291/109/120 292/110/120
f 294/107/121 296/110/121 295/109/121 293/108/121
f 298/107/122 297/108/122 299/109/122 300/110/122
f 302/107/123 304/110/123 303/109/123 301/108/123
f 306/107/124 305/108/124 307/109/124 308/110/124
f 310/107/125 312/110/125 311/109/125 309/108/125
f 314/107/126 313/108/126 315/109/126 316/110/126
f 318/107/127 320/110/127 319/109/127 317/108/127
f 322/107/128 321/108/128 323/109/128 324/110/128
f 326/107/129 328/110/129 327/109/129 325/108/129
f 330/107/130 329/108/130 331/109/130 332/110/130
f 334/107/131 336/110/131 335/109/131 333/108/131
f 338/107/130 337/108/130 339/109/130 340/110/130
f 342/107/131 344/110/131 343/109/131 341/108/131
f 346/107/132 345/108/132 347/109/132 348/110/132
f 350/107/133 352/110/133 351/109/133 349/108/133
f 354/107/134 353/108/134 355/109/134 356/110/134
f 358/107/135 360/110/135 359/109/135 357/108/135
