# Blender v2.66 (sub 0) OBJ File: 'stairs2.blend'
# www.blender.org
o Cube
v -1.000000 -1.000000 1.000000
v -1.000000 -1.000000 -1.000000
v 1.000000 -1.000000 -1.000000
v 1.000000 -1.000000 1.000000
v -1.000000 1.000000 1.000000
v -1.000000 1.000000 -1.000000
v 1.000000 1.000000 -1.000000
v 1.000000 1.000000 1.000000
vt 0.003695 0.000000
vt 0.506111 0.000000
vt 0.506111 1.000000
vt 0.003695 1.000000
vt 0.491593 0.000000
vt 0.994010 0.000000
vt 0.994010 1.000000
vt 0.491593 1.000000
vn -1.000000 0.000000 0.000000
vn 0.000000 0.000000 -1.000000
vn 1.000000 -0.000000 0.000000
vn 0.000000 -0.000000 1.000000
vn -0.000000 -1.000000 0.000000
vn -0.000000 1.000000 0.000000
s off
f 5/1/1 6/2/1 2/3/1 1/4/1
f 6/1/2 7/2/2 3/3/2 2/4/2
f 7/1/3 8/2/3 4/3/3 3/4/3
f 8/1/4 5/2/4 1/3/4 4/4/4
f 1/1/5 2/2/5 3/3/5 4/4/5
f 8/5/6 7/6/6 6/7/6 5/8/6
