# Blender v2.66 (sub 0) OBJ File: 'plants.blend'
# www.blender.org
o flower1_Plane.013
v -0.252877 4.368431 -0.001446
v 0.167145 4.896587 0.378386
v 0.202613 4.856947 -1.184413
v 0.622635 5.385104 -0.804580
v 0.243469 4.926128 0.065788
v -0.270230 4.393086 0.292988
v 0.505988 5.226633 1.364369
v -0.007711 4.693592 1.591569
v -0.212737 4.333572 -0.001446
v 0.207285 4.861728 0.378386
v 0.242753 4.822089 -1.184413
v 0.662775 5.350245 -0.804580
v 0.283610 4.891269 0.065788
v -0.230090 4.358228 0.292988
v 0.546129 5.191774 1.364369
v 0.032429 4.658733 1.591569
v -0.058726 4.130151 0.162259
v 0.023299 5.002604 0.178211
v 1.467308 3.988951 0.037898
v 1.549333 4.861405 0.053850
v 0.362660 4.866282 0.181325
v -0.328938 4.328097 0.166962
v -0.578183 6.070853 0.348684
v -1.269781 5.532667 0.334322
v -0.053161 4.126257 0.222047
v 0.028864 4.998711 0.237998
v 1.472874 3.985058 0.097686
v 1.554899 4.857512 0.113637
v 0.368226 4.862389 0.241112
v -0.323373 4.324203 0.226750
v -0.572617 6.066959 0.408472
v -1.264216 5.528774 0.394109
v 0.468417 -0.669285 0.196537
v -1.562428 -0.669285 0.196537
v 0.410239 5.126385 0.205126
v -1.562428 5.163537 0.196537
v 0.371886 4.889195 0.134204
v 0.229814 4.949975 0.139533
v 0.372586 4.892565 0.278465
v 0.230515 4.953345 0.283793
v 0.651716 5.079345 0.035565
v 0.396484 5.266310 0.050994
v 0.662353 5.089119 0.330836
v 0.407121 5.276083 0.346265
v 1.832468 6.388148 0.522277
v 0.703924 4.928357 0.484732
v 1.403873 6.737316 -0.170814
v 0.275328 5.277524 -0.208359
v 1.145118 5.786586 0.644266
v 0.716523 6.135754 -0.048825
v 1.030801 6.467186 -0.076199
v 1.459397 6.118019 0.616892
v 0.875736 5.408340 0.620293
v 0.447140 5.757507 -0.072797
v 1.529290 6.655408 0.277383
v 0.400745 5.195617 0.239838
v 0.841940 6.053846 0.399372
v 1.156218 6.385279 0.371998
v 0.572557 5.675600 0.375399
v 1.877775 6.272111 -0.362488
v 0.449923 5.104662 -0.296792
v 1.794483 6.422920 0.507170
v 0.366631 5.255472 0.572867
v 1.327294 5.536865 -0.287710
v 1.244002 5.687674 0.581948
v 1.558280 6.019107 0.554574
v 1.641572 5.868297 -0.315085
v 0.953394 5.260704 -0.275631
v 0.870102 5.411513 0.594027
v 1.954161 6.238093 0.102621
v 0.526309 5.070645 0.168317
v 1.403680 5.502847 0.177399
v 1.717959 5.834280 0.150024
v 1.029780 5.226686 0.189478
v 2.085134 5.993472 0.286819
v 0.575355 4.769855 0.044386
v 1.494310 6.629710 0.716531
v -0.052382 5.359027 0.471325
v 1.385247 5.276344 0.386313
v 0.794423 5.912581 0.816025
v 1.161912 6.251611 0.819325
v 1.752736 5.615374 0.389613
v 0.990962 4.967148 0.301997
v 0.400138 5.603385 0.731709
v 1.842771 6.252528 0.662063
v 0.272408 4.961396 0.416130
v 1.142884 5.535399 0.761557
v 1.510373 5.874429 0.764857
v 0.748599 5.226204 0.677241
v 1.360947 6.739771 0.419741
v 0.332234 4.989494 0.632269
v 1.300502 6.657393 -0.543630
v 0.313846 4.911991 -0.333225
v 0.666066 6.018610 0.525007
v 0.605620 5.936233 -0.438364
v 0.905876 6.332548 -0.491092
v 0.966322 6.414926 0.472279
v 0.437873 5.567718 0.577881
v 0.377427 5.485340 -0.385490
v 1.188061 6.806629 -0.062232
v 0.159758 5.023942 0.146756
v 0.493180 6.085468 0.043034
v 0.793435 6.481783 -0.009694
v 0.264986 5.634575 0.095907
v 0.468417 -0.669285 0.196537
v -1.562428 -0.669285 0.196537
v 0.410239 5.126385 0.205126
v -1.562428 5.163537 0.196537
v 0.371886 4.889195 0.134204
v 0.229814 4.949975 0.139533
v 0.372586 4.892565 0.278465
v 0.230515 4.953345 0.283793
v 0.651716 5.079345 0.035565
v 0.396484 5.266310 0.050994
v 0.662353 5.089119 0.330836
v 0.407121 5.276083 0.346265
v 1.832468 6.388148 0.522277
v 0.703924 4.928357 0.484732
v 1.403873 6.737316 -0.170814
v 0.275328 5.277524 -0.208359
v 1.145118 5.786586 0.644266
v 0.716523 6.135754 -0.048825
v 1.030801 6.467186 -0.076199
v 1.459397 6.118019 0.616892
v 0.875736 5.408340 0.620293
v 0.447140 5.757507 -0.072797
v 1.529290 6.655408 0.277383
v 0.400745 5.195617 0.239838
v 0.841940 6.053846 0.399372
v 1.156218 6.385279 0.371998
v 0.572557 5.675600 0.375399
v 1.877775 6.272111 -0.362488
v 0.449923 5.104662 -0.296792
v 1.794483 6.422920 0.507170
v 0.366631 5.255472 0.572867
v 1.327294 5.536865 -0.287710
v 1.244002 5.687674 0.581948
v 1.558280 6.019107 0.554574
v 1.641572 5.868297 -0.315085
v 0.953394 5.260704 -0.275631
v 0.870102 5.411513 0.594027
v 1.954161 6.238093 0.102621
v 0.526309 5.070645 0.168317
v 1.403680 5.502847 0.177399
v 1.717959 5.834280 0.150024
v 1.029780 5.226686 0.189478
v 2.085134 5.993472 0.286819
v 0.575355 4.769855 0.044386
v 1.494310 6.629710 0.716531
v -0.052382 5.359027 0.471325
v 1.385247 5.276344 0.386313
v 0.794423 5.912581 0.816025
v 1.161912 6.251611 0.819325
v 1.752736 5.615374 0.389613
v 0.990962 4.967148 0.301997
v 0.400138 5.603385 0.731709
v 1.842771 6.252528 0.662063
v 0.272408 4.961396 0.416130
v 1.142884 5.535399 0.761557
v 1.510373 5.874429 0.764857
v 0.748599 5.226204 0.677241
v 1.360947 6.739771 0.419741
v 0.332234 4.989494 0.632269
v 1.300502 6.657393 -0.543630
v 0.313846 4.911991 -0.333225
v 0.666066 6.018610 0.525007
v 0.605620 5.936233 -0.438364
v 0.905876 6.332548 -0.491092
v 0.966322 6.414926 0.472279
v 0.437873 5.567718 0.577881
v 0.377427 5.485340 -0.385490
v 1.188061 6.806629 -0.062232
v 0.159758 5.023942 0.146756
v 0.493180 6.085468 0.043034
v 0.793435 6.481783 -0.009694
v 0.264986 5.634575 0.095907
vt 0.484692 0.307188
vt 0.484692 0.603219
vt 0.572232 0.603219
vt 0.572232 0.307188
vt 0.484692 0.004812
vt 0.484692 0.300844
vt 0.572232 0.300844
vt 0.572232 0.004812
vt 0.386678 0.002324
vt 0.483915 0.002324
vt 0.483915 0.943777
vt 0.386678 0.943777
vt 0.611088 0.723863
vt 0.576977 0.723863
vt 0.576977 0.798128
vt 0.611088 0.798128
vt 0.595563 0.858611
vt 0.595563 0.932876
vt 0.561453 0.932876
vt 0.561453 0.858611
vt 0.595563 0.710080
vt 0.595563 0.784345
vt 0.561453 0.784345
vt 0.561453 0.710080
vt 0.595563 0.635815
vt 0.561453 0.635815
vt 0.629674 0.858611
vt 0.629674 0.932876
vt 0.629674 0.710080
vt 0.629674 0.784345
vt 0.629674 0.635815
vt 0.527141 0.858611
vt 0.527141 0.932876
vt 0.493030 0.932876
vt 0.493030 0.858611
vt 0.527141 0.710080
vt 0.527141 0.784345
vt 0.493030 0.784345
vt 0.493030 0.710080
vt 0.527141 0.635815
vt 0.493030 0.635815
vt 0.561252 0.858611
vt 0.561252 0.932876
vt 0.561252 0.710080
vt 0.561252 0.784345
vt 0.561252 0.635815
vn -0.770287 0.636769 -0.033631
vn -0.722892 0.690817 -0.013703
vn 0.770287 -0.636769 0.033631
vn 0.722892 -0.690817 0.013703
vn -0.078829 0.025605 -0.996551
vn -0.053987 0.095889 -0.993896
vn 0.078829 -0.025605 0.996551
vn 0.053987 -0.095889 0.993896
vn -0.002136 -0.000732 0.999969
vn -0.792291 -0.292581 0.535386
vn -0.829554 -0.312723 -0.462600
vn 0.014863 -0.859523 -0.510849
vn 0.058412 -0.834651 0.547624
vn -0.172308 0.760094 0.626514
vn 0.818873 -0.022950 0.573473
vn 0.754326 -0.060579 -0.653645
vn -0.227760 0.732780 -0.641163
vn -0.461501 0.644185 0.609912
vn -0.369854 0.717521 0.590197
vn -0.511582 0.808466 0.290902
vn -0.595599 0.744072 0.302622
vn -0.739555 0.294015 0.605457
vn -0.600787 0.500229 0.623524
vn -0.732841 0.602893 0.315256
vn -0.868068 0.385083 0.313273
vn -0.812525 0.130375 0.568133
vn -0.921293 0.244331 0.302438
vn -0.262612 0.472793 0.841121
vn -0.184484 0.541978 0.819880
vn -0.552477 0.127964 0.823634
vn -0.398999 0.330912 0.855129
vn -0.626209 0.003967 0.779595
vn 0.793756 -0.581866 0.176916
vn 0.859554 -0.483261 0.166112
vn 0.777062 -0.397229 0.488205
vn 0.716208 -0.483261 0.503464
vn 0.452498 -0.870327 0.194250
vn 0.657735 -0.728996 0.189398
vn 0.582385 -0.627613 0.516617
vn 0.375225 -0.778161 0.503616
vn 0.283334 -0.939970 0.190130
vn 0.241127 -0.843226 0.480422
vn 0.780908 -0.600421 -0.172155
vn 0.840632 -0.512314 -0.175512
vn 0.436567 -0.889187 -0.136723
vn 0.647267 -0.745079 -0.160772
vn 0.298471 -0.947050 -0.118259
vn 0.377667 -0.251198 0.891201
vn 0.457778 -0.164922 0.873623
vn 0.224433 0.066958 0.972167
vn 0.148412 -0.005676 0.988891
vn 0.039735 -0.540788 0.840205
vn 0.230873 -0.388165 0.892178
vn 0.003601 -0.139653 0.990173
vn -0.183477 -0.294931 0.937712
vn -0.108341 -0.626576 0.771783
vn -0.288675 -0.375469 0.880703
vn 0.568468 -0.458022 0.683370
vn 0.637104 -0.377392 0.672018
vn 0.221534 -0.748283 0.625233
vn 0.424757 -0.593188 0.683859
vn 0.096255 -0.819636 0.564684
vn -0.724113 0.689535 -0.013520
vn -0.637379 0.770104 -0.025849
vn -0.620899 0.695914 -0.360759
vn -0.697439 0.622059 -0.355754
vn -0.946806 0.320811 0.024232
vn -0.846706 0.531968 0.007630
vn -0.817927 0.467086 -0.335826
vn -0.918180 0.245521 -0.310800
vn -0.986633 0.160283 0.028779
vn -0.949705 0.109867 -0.293130
vn -0.654469 0.680624 0.329173
vn -0.578661 0.753441 0.312082
vn -0.878842 0.318613 0.355052
vn -0.774834 0.525803 0.350871
vn -0.917386 0.193487 0.347728
vn 0.002136 0.000732 -0.999969
vn 0.792291 0.292581 -0.535386
vn -0.058412 0.834651 -0.547624
vn -0.014863 0.859523 0.510849
vn 0.829554 0.312723 0.462600
vn 0.172308 -0.760094 -0.626514
vn 0.227760 -0.732780 0.641163
vn -0.754326 0.060579 0.653645
vn -0.818873 0.022950 -0.573473
vn 0.461501 -0.644185 -0.609912
vn 0.595599 -0.744072 -0.302622
vn 0.511582 -0.808466 -0.290902
vn 0.369854 -0.717521 -0.590197
vn 0.739555 -0.294015 -0.605457
vn 0.868068 -0.385083 -0.313273
vn 0.732841 -0.602893 -0.315256
vn 0.600787 -0.500229 -0.623524
vn 0.812525 -0.130375 -0.568133
vn 0.921293 -0.244331 -0.302438
vn 0.262612 -0.472793 -0.841121
vn 0.184484 -0.541978 -0.819880
vn 0.552477 -0.127964 -0.823634
vn 0.398999 -0.330912 -0.855129
vn 0.626209 -0.003967 -0.779595
vn -0.793756 0.581866 -0.176916
vn -0.716208 0.483261 -0.503464
vn -0.777062 0.397229 -0.488205
vn -0.859554 0.483261 -0.166112
vn -0.452498 0.870327 -0.194250
vn -0.375225 0.778161 -0.503616
vn -0.582385 0.627613 -0.516617
vn -0.657735 0.728996 -0.189398
vn -0.283334 0.939970 -0.190130
vn -0.241127 0.843226 -0.480422
vn -0.780908 0.600421 0.172155
vn -0.840632 0.512314 0.175512
vn -0.436567 0.889187 0.136723
vn -0.647267 0.745079 0.160772
vn -0.298471 0.947050 0.118259
vn -0.377667 0.251198 -0.891201
vn -0.148412 0.005676 -0.988891
vn -0.224433 -0.066958 -0.972167
vn -0.457778 0.164922 -0.873623
vn -0.039735 0.540788 -0.840205
vn 0.183477 0.294931 -0.937712
vn -0.003601 0.139653 -0.990173
vn -0.230873 0.388165 -0.892178
vn 0.108341 0.626576 -0.771783
vn 0.288675 0.375469 -0.880703
vn -0.568468 0.458022 -0.683370
vn -0.637104 0.377392 -0.672018
vn -0.221534 0.748283 -0.625233
vn -0.424757 0.593188 -0.683859
vn -0.096255 0.819636 -0.564684
vn 0.724113 -0.689535 0.013520
vn 0.697439 -0.622059 0.355754
vn 0.620899 -0.695914 0.360759
vn 0.637379 -0.770104 0.025849
vn 0.946806 -0.320811 -0.024232
vn 0.918180 -0.245521 0.310800
vn 0.817927 -0.467086 0.335826
vn 0.846706 -0.531968 -0.007630
vn 0.986633 -0.160283 -0.028779
vn 0.949705 -0.109867 0.293130
vn 0.654469 -0.680624 -0.329173
vn 0.578661 -0.753441 -0.312082
vn 0.878842 -0.318613 -0.355052
vn 0.774834 -0.525803 -0.350871
vn 0.917386 -0.193487 -0.347728
s 1
f 2/1/1 4/2/1 3/3/1 1/4/1
f 6/1/2 8/2/2 7/3/2 5/4/2
f 10/1/3 9/4/3 11/3/3 12/2/3
f 14/1/4 13/4/4 15/3/4 16/2/4
f 18/5/5 20/6/5 19/7/5 17/8/5
f 22/5/6 24/6/6 23/7/6 21/8/6
f 26/5/7 25/8/7 27/7/7 28/6/7
f 30/5/8 29/8/8 31/7/8 32/6/8
f 34/9/9 33/10/9 35/11/9 36/12/9
f 40/13/10 38/14/11 37/15/12 39/16/13
f 44/13/14 43/16/15 41/15/16 42/14/17
f 38/14/11 40/13/10 44/13/14 42/14/17
f 40/13/10 39/16/13 43/16/15 44/13/14
f 39/16/13 37/15/12 41/15/16 43/16/15
f 37/15/12 38/14/11 42/14/17 41/15/16
f 58/17/18 55/18/19 47/19/20 51/20/21
f 59/21/22 57/22/23 50/23/24 54/24/25
f 57/22/23 58/17/18 51/20/21 50/23/24
f 56/25/26 59/21/22 54/24/25 48/26/27
f 52/27/28 45/28/29 55/18/19 58/17/18
f 53/29/30 49/30/31 57/22/23 59/21/22
f 49/30/31 52/27/28 58/17/18 57/22/23
f 46/31/32 53/29/30 59/21/22 56/25/26
f 73/17/33 70/18/34 62/19/35 66/20/36
f 74/21/37 72/22/38 65/23/39 69/24/40
f 72/22/38 73/17/33 66/20/36 65/23/39
f 71/25/41 74/21/37 69/24/40 63/26/42
f 67/27/43 60/28/44 70/18/34 73/17/33
f 68/29/45 64/30/46 72/22/38 74/21/37
f 64/30/46 67/27/43 73/17/33 72/22/38
f 61/31/47 68/29/45 74/21/37 71/25/41
f 88/32/48 85/33/49 77/34/50 81/35/51
f 89/36/52 87/37/53 80/38/54 84/39/55
f 87/37/53 88/32/48 81/35/51 80/38/54
f 86/40/56 89/36/52 84/39/55 78/41/57
f 82/42/58 75/43/59 85/33/49 88/32/48
f 83/44/60 79/45/61 87/37/53 89/36/52
f 79/45/61 82/42/58 88/32/48 87/37/53
f 76/46/62 83/44/60 89/36/52 86/40/56
f 103/32/63 100/33/64 92/34/65 96/35/66
f 104/36/67 102/37/68 95/38/69 99/39/70
f 102/37/68 103/32/63 96/35/66 95/38/69
f 101/40/71 104/36/67 99/39/70 93/41/72
f 97/42/73 90/43/74 100/33/64 103/32/63
f 98/44/75 94/45/76 102/37/68 104/36/67
f 94/45/76 97/42/73 103/32/63 102/37/68
f 91/46/77 98/44/75 104/36/67 101/40/71
f 106/9/78 108/12/78 107/11/78 105/10/78
f 112/13/79 111/16/80 109/15/81 110/14/82
f 116/13/83 114/14/84 113/15/85 115/16/86
f 110/14/82 114/14/84 116/13/83 112/13/79
f 112/13/79 116/13/83 115/16/86 111/16/80
f 111/16/80 115/16/86 113/15/85 109/15/81
f 109/15/81 113/15/85 114/14/84 110/14/82
f 130/17/87 123/20/88 119/19/89 127/18/90
f 131/21/91 126/24/92 122/23/93 129/22/94
f 129/22/94 122/23/93 123/20/88 130/17/87
f 128/25/95 120/26/96 126/24/92 131/21/91
f 124/27/97 130/17/87 127/18/90 117/28/98
f 125/29/99 131/21/91 129/22/94 121/30/100
f 121/30/100 129/22/94 130/17/87 124/27/97
f 118/31/101 128/25/95 131/21/91 125/29/99
f 145/17/102 138/20/103 134/19/104 142/18/105
f 146/21/106 141/24/107 137/23/108 144/22/109
f 144/22/109 137/23/108 138/20/103 145/17/102
f 143/25/110 135/26/111 141/24/107 146/21/106
f 139/27/112 145/17/102 142/18/105 132/28/113
f 140/29/114 146/21/106 144/22/109 136/30/115
f 136/30/115 144/22/109 145/17/102 139/27/112
f 133/31/116 143/25/110 146/21/106 140/29/114
f 160/32/117 153/35/118 149/34/119 157/33/120
f 161/36/121 156/39/122 152/38/123 159/37/124
f 159/37/124 152/38/123 153/35/118 160/32/117
f 158/40/125 150/41/126 156/39/122 161/36/121
f 154/42/127 160/32/117 157/33/120 147/43/128
f 155/44/129 161/36/121 159/37/124 151/45/130
f 151/45/130 159/37/124 160/32/117 154/42/127
f 148/46/131 158/40/125 161/36/121 155/44/129
f 175/32/132 168/35/133 164/34/134 172/33/135
f 176/36/136 171/39/137 167/38/138 174/37/139
f 174/37/139 167/38/138 168/35/133 175/32/132
f 173/40/140 165/41/141 171/39/137 176/36/136
f 169/42/142 175/32/132 172/33/135 162/43/143
f 170/44/144 176/36/136 174/37/139 166/45/145
f 166/45/145 174/37/139 175/32/132 169/42/142
f 163/46/146 173/40/140 176/36/136 170/44/144
