# Blender v2.66 (sub 0) OBJ File: 'plants.blend'
# www.blender.org
o flower1.001_Plane.006
v 0.000000 -0.082165 0.390651
v -0.000000 1.917835 0.390651
v 0.000000 -0.082165 -0.390651
v -0.000000 1.917835 -0.390651
v -0.037944 -0.082165 0.390651
v -0.037944 1.917835 0.390651
v -0.037944 -0.082165 -0.390651
v -0.037944 1.917835 -0.390651
v 0.016680 -0.074616 0.272728
v 0.016680 1.631790 0.272728
v 0.016680 -0.074616 0.939337
v 0.016680 1.631790 0.939337
v 0.049054 -0.074616 0.272728
v 0.049054 1.631790 0.272728
v 0.049054 -0.074616 0.939337
v 0.049054 1.631790 0.939337
v -0.069788 -0.054447 0.281963
v 0.185394 1.911374 0.500150
v 0.609667 -0.182493 0.640980
v 0.864849 1.783327 0.859166
v -0.051921 -0.053067 0.248641
v 0.203261 1.912753 0.466827
v 0.627535 -0.181114 0.607657
v 0.882717 1.784706 0.825843
v 0.110508 -0.000143 0.389659
v -0.251468 2.394256 0.199385
v -0.793403 -0.156106 0.146627
v -1.155380 2.238293 -0.043647
v 0.098281 0.001537 0.434060
v -0.263696 2.395936 0.243786
v -0.805631 -0.154426 0.191028
v -1.167608 2.239973 0.000754
v -1.231229 0.687711 1.499876
v -1.037767 1.336848 1.262646
v -0.297295 0.130387 0.022886
v 0.000000 0.419533 -0.331186
v -0.297295 0.293153 -0.381992
v 0.297295 0.130387 0.022886
v -0.297295 0.319119 -0.599627
v -0.991792 1.528996 1.825919
v -1.185254 0.879859 2.063149
v -0.976945 0.783785 1.970138
v 0.297295 -0.019361 0.242337
v -0.297295 -0.019361 0.242337
v 0.297295 0.319119 -0.599627
v 0.297295 0.293153 -0.381992
v -0.783482 1.432922 1.732908
v -1.246077 1.432922 1.355658
v -1.439539 0.783785 1.592888
v 0.000000 0.256767 0.073693
v 0.000000 0.428796 -0.555535
v 0.000000 0.090317 0.286429
v -0.297295 0.113686 0.016172
v 0.000000 0.402832 -0.337900
v -0.297295 0.276452 -0.388706
v 0.297295 0.113686 0.016172
v -0.297295 0.302418 -0.606341
v 0.297295 -0.036062 0.235623
v -0.297295 -0.036062 0.235623
v 0.297295 0.302418 -0.606341
v 0.297295 0.276452 -0.388706
v 0.000000 0.240066 0.066979
v 0.000000 0.412095 -0.562249
v 0.000000 0.073616 0.279715
v -0.408609 0.112435 0.612442
v -0.726588 0.465325 0.146314
v -0.884355 0.311084 0.478886
v -0.212474 0.112435 -0.086221
v -1.140082 0.342774 0.407095
v 0.045388 -0.070325 -0.013831
v -0.150747 -0.070325 0.684831
v -0.943946 0.342774 -0.291567
v -0.688219 0.311084 -0.219777
v -0.250842 0.266677 0.279870
v -0.990205 0.476630 0.072308
v -0.000870 0.063531 0.350044
v -0.416499 0.092053 0.610227
v -0.734477 0.444943 0.144099
v -0.892244 0.290701 0.476671
v -0.220363 0.092053 -0.088436
v -1.147971 0.322391 0.404880
v 0.037499 -0.090708 -0.016046
v -0.158636 -0.090708 0.682617
v -0.951835 0.322391 -0.293782
v -0.696108 0.290701 -0.221992
v -0.258732 0.246294 0.277655
v -0.998094 0.456248 0.070093
v -0.008760 0.043149 0.347830
v 0.341711 0.112435 0.641404
v -0.033481 0.465325 1.062849
v 0.327407 0.311084 1.135334
v -0.383656 0.112435 0.620397
v 0.319718 0.342774 1.400835
v -0.375902 -0.070325 0.352679
v 0.349465 -0.070325 0.373686
v -0.405649 0.342774 1.379829
v -0.397960 0.311084 1.114327
v -0.019177 0.266677 0.568920
v -0.041408 0.476630 1.336543
v -0.011661 0.063531 0.309393
v 0.341474 0.092053 0.649595
v -0.033719 0.444943 1.071040
v 0.327170 0.290701 1.143525
v -0.383893 0.092053 0.628588
v 0.319481 0.322391 1.409026
v -0.376140 -0.090708 0.360870
v 0.349228 -0.090708 0.381877
v -0.405886 0.322391 1.388019
v -0.398197 0.290701 1.122517
v -0.019414 0.246294 0.577111
v -0.041645 0.456248 1.344734
v -0.011898 0.043149 0.317584
v 0.377763 0.237818 0.063108
v 0.553757 0.596488 0.443050
v 0.709706 0.510167 0.164579
v 0.235130 0.194670 0.645516
v 0.906148 0.597021 0.219123
v 0.073223 -0.012490 0.590517
v 0.215856 0.030659 0.008109
v 0.763515 0.553873 0.801531
v 0.567073 0.467019 0.746987
v 0.221814 0.324139 0.341579
v 0.761384 0.669082 0.499277
v 0.071092 0.102720 0.288263
v 0.388947 0.223560 0.064791
v 0.564941 0.582230 0.444733
v 0.720890 0.495909 0.166262
v 0.246314 0.180412 0.647199
v 0.917332 0.582763 0.220806
v 0.084407 -0.026748 0.592200
v 0.227040 0.016401 0.009792
v 0.774699 0.539615 0.803214
v 0.578257 0.452761 0.748670
v 0.232998 0.309881 0.343262
v 0.772568 0.654824 0.500959
v 0.082276 0.088462 0.289946
v -1.458871 0.899823 1.894640
v -1.265409 1.548960 1.657411
v -0.764150 1.316884 1.431155
v -0.957613 0.667747 1.668385
v -1.231229 0.687711 1.499876
v -1.037767 1.336848 1.262646
v -0.991792 1.528996 1.825919
v -1.185254 0.879859 2.063149
v -0.976945 0.783785 1.970138
v -0.783482 1.432922 1.732908
v -1.246077 1.432922 1.355658
v -1.439539 0.783785 1.592888
v -1.458871 0.899823 1.894640
v -1.265409 1.548960 1.657411
v -0.764150 1.316884 1.431155
v -0.957613 0.667747 1.668385
v -1.091414 -0.080137 1.674227
v -1.091414 2.306937 1.674227
v 0.066061 -0.077976 0.308250
v 0.066061 2.309097 0.308250
v -1.126511 -0.080137 1.645606
v -1.126511 2.306937 1.645606
v 0.030964 -0.077976 0.279628
v 0.030964 2.309097 0.279628
v 1.726954 0.772203 -0.236664
v 1.501690 1.294667 -0.136872
v 1.673871 1.449319 -0.557887
v 1.899134 0.926855 -0.657680
v 1.715747 0.849529 -0.666803
v 1.490484 1.371993 -0.567010
v 1.685078 1.371993 -0.127749
v 1.910341 0.849529 -0.227542
v 2.034132 0.942923 -0.437072
v 1.808868 1.465387 -0.337279
v 1.366693 1.278599 -0.357480
v 1.591956 0.756135 -0.457272
v 1.726954 0.772203 -0.236664
v 1.501690 1.294667 -0.136872
v 1.673871 1.449319 -0.557887
v 1.899134 0.926855 -0.657680
v 1.715747 0.849529 -0.666803
v 1.490484 1.371993 -0.567010
v 1.685078 1.371993 -0.127749
v 1.910341 0.849529 -0.227542
v 2.034132 0.942923 -0.437072
v 1.808868 1.465387 -0.337279
v 1.366693 1.278599 -0.357480
v 1.591956 0.756135 -0.457272
v 1.690116 0.154194 -0.412728
v 1.690116 2.075451 -0.412728
v 0.007360 0.154194 0.332739
v 0.007360 2.075451 0.332739
v 1.704880 0.154194 -0.379401
v 1.704880 2.075451 -0.379401
v 0.022124 0.154194 0.366066
v 0.022124 2.075451 0.366066
v -0.704125 0.772202 -1.234957
v -0.581503 1.294666 -1.021261
v -1.018108 1.449318 -1.148838
v -1.140730 0.926854 -1.362534
v -1.130780 0.849528 -1.179191
v -1.008158 1.371992 -0.965494
v -0.591453 1.371992 -1.204606
v -0.714075 0.849528 -1.418302
v -0.935316 0.942923 -1.519689
v -0.812694 1.465386 -1.305992
v -0.786917 1.278598 -0.864107
v -0.909539 0.756134 -1.077803
v -0.704125 0.772202 -1.234957
v -0.581503 1.294666 -1.021261
v -1.018108 1.449318 -1.148838
v -1.140730 0.926854 -1.362534
v -1.130780 0.849528 -1.179191
v -1.008158 1.371992 -0.965494
v -0.591453 1.371992 -1.204606
v -0.714075 0.849528 -1.418302
v -0.935316 0.942923 -1.519689
v -0.812694 1.465386 -1.305992
v -0.786917 1.278598 -0.864107
v -0.909539 0.756134 -1.077803
v -0.875417 0.154193 -1.180054
v -0.875417 2.075450 -1.180054
v 0.040590 0.154193 0.416292
v 0.040590 2.075450 0.416292
v -0.843802 0.154193 -1.198195
v -0.843802 2.075450 -1.198195
v 0.072205 0.154193 0.398151
v 0.072205 2.075450 0.398151
vt 0.777992 0.672660
vt 0.777992 0.013382
vt 0.997725 0.013382
vt 0.997725 0.672660
vt 0.584256 0.940254
vt 0.584256 0.681762
vt 0.736143 0.681762
vt 0.736143 0.940254
vt 0.439039 0.674179
vt 0.533484 0.672901
vt 0.530592 0.769744
vt 0.438821 0.778681
vt 0.346780 0.674294
vt 0.349952 0.768820
vt 0.441026 0.912263
vt 0.529400 0.925276
vt 0.532491 0.998239
vt 0.440741 0.996260
vt 0.349974 0.923558
vt 0.346780 0.998408
vt 0.282373 0.672660
vt 0.282373 0.013382
vt 0.732008 0.013382
vt 0.732008 0.672660
vn 1.000000 0.000000 0.000000
vn -1.000000 0.000000 0.000000
vn -0.472213 -0.036439 0.880703
vn 0.472213 0.036439 -0.880703
vn 0.265328 -0.036439 -0.963439
vn -0.265328 0.036439 0.963439
vn 0.959868 -0.279824 0.017090
vn 0.000000 0.807062 0.590442
vn 0.383007 0.745506 0.545427
vn 0.401990 0.798486 0.448103
vn 0.000000 0.876064 0.482162
vn -0.383007 0.745506 0.545427
vn -0.401990 0.798486 0.448103
vn 0.471328 0.175390 0.864315
vn -0.571612 0.426496 0.700919
vn 0.000000 0.972137 0.234382
vn 0.400586 0.893246 0.203864
vn 0.378094 0.922819 0.073550
vn 0.000000 0.996826 0.079440
vn -0.400586 0.893246 0.203864
vn -0.378094 0.922819 0.073550
vn 0.000000 -0.807062 -0.590442
vn 0.000000 -0.876064 -0.482162
vn -0.401990 -0.798486 -0.448103
vn -0.383007 -0.745506 -0.545427
vn 0.383007 -0.745506 -0.545427
vn 0.401990 -0.798486 -0.448103
vn 0.000000 -0.972137 -0.234382
vn 0.000000 -0.996826 -0.079440
vn -0.378094 -0.922819 -0.073550
vn -0.400586 -0.893246 -0.203864
vn 0.400586 -0.893246 -0.203864
vn 0.378094 -0.922819 -0.073550
vn 0.568468 0.807062 0.159581
vn 0.628651 0.745506 -0.221351
vn 0.540086 0.798486 -0.265908
vn 0.464217 0.876064 0.130314
vn 0.421583 0.745506 0.516190
vn 0.322764 0.798486 0.508133
vn 0.225654 0.972137 0.063326
vn 0.304575 0.893246 -0.330576
vn 0.173009 0.922819 -0.344157
vn 0.076479 0.996826 0.021455
vn 0.088015 0.893246 0.440809
vn -0.031373 0.922819 0.383892
vn -0.568468 -0.807062 -0.159581
vn -0.464217 -0.876064 -0.130314
vn -0.540086 -0.798486 0.265908
vn -0.628651 -0.745506 0.221351
vn -0.421583 -0.745506 -0.516190
vn -0.322764 -0.798486 -0.508133
vn -0.225654 -0.972137 -0.063326
vn -0.076479 -0.996826 -0.021455
vn -0.173009 -0.922819 0.344157
vn -0.304575 -0.893246 0.330576
vn -0.088015 -0.893246 -0.440809
vn 0.031373 -0.922819 -0.383892
vn 0.017090 0.807062 -0.590197
vn -0.367077 0.745506 -0.556291
vn -0.388836 0.798486 -0.459548
vn 0.013947 0.876064 -0.481948
vn 0.398633 0.745506 -0.534104
vn 0.414777 0.798486 -0.436293
vn 0.006775 0.972137 -0.234291
vn -0.394513 0.893246 -0.215400
vn -0.375805 0.922819 -0.084445
vn 0.002289 0.996826 -0.079409
vn 0.406323 0.893246 -0.192206
vn 0.380078 0.922819 -0.062563
vn -0.017090 -0.807062 0.590197
vn -0.013947 -0.876064 0.481948
vn 0.388836 -0.798486 0.459548
vn 0.367077 -0.745506 0.556291
vn -0.398633 -0.745506 0.534104
vn -0.414777 -0.798486 0.436293
vn -0.006775 -0.972137 0.234291
vn -0.002289 -0.996826 0.079409
vn 0.375805 -0.922819 0.084445
vn 0.394513 -0.893246 0.215400
vn -0.406323 -0.893246 0.192206
vn -0.380078 -0.922819 0.062563
vn -0.781213 0.606830 -0.146336
vn -0.812494 0.533067 0.235847
vn -0.742119 0.609699 0.278359
vn -0.700766 0.703269 -0.119510
vn -0.630757 0.588061 -0.506272
vn -0.551347 0.667409 -0.500504
vn -0.498825 0.864711 -0.058077
vn -0.542741 0.769036 0.337565
vn -0.425123 0.835505 0.348064
vn -0.362285 0.931822 -0.019684
vn -0.352641 0.826563 -0.438643
vn -0.245705 0.889798 -0.384533
vn 0.781213 -0.606830 0.146336
vn 0.700766 -0.703269 0.119510
vn 0.742119 -0.609699 -0.278359
vn 0.812494 -0.533067 -0.235847
vn 0.630757 -0.588061 0.506272
vn 0.551347 -0.667409 0.500504
vn 0.498825 -0.864711 0.058077
vn 0.362285 -0.931822 0.019684
vn 0.425123 -0.835505 -0.348064
vn 0.542741 -0.769036 -0.337565
vn 0.352641 -0.826563 0.438643
vn 0.245705 -0.889798 0.384533
vn -0.959868 0.279824 -0.017090
vn -0.471328 -0.175390 -0.864315
vn 0.571612 -0.426496 -0.700919
vn 0.762932 0.000000 0.646474
vn -0.762932 0.000000 -0.646474
vn -0.848201 -0.279824 -0.449660
vn -0.029115 0.175390 -0.984039
vn 0.826960 0.426496 -0.366344
vn 0.848201 0.279824 0.449660
vn 0.029115 -0.175390 0.984039
vn -0.826960 -0.426496 0.366344
vn -0.405011 0.000000 -0.914274
vn 0.405011 0.000000 0.914274
vn -0.359264 -0.279824 0.890286
vn -0.975707 0.175390 0.131046
vn -0.450148 0.426496 -0.784478
vn 0.359264 0.279824 -0.890286
vn 0.975707 -0.175390 -0.131046
vn 0.450148 -0.426496 0.784478
vn -0.867336 0.000000 0.497696
vn 0.867336 0.000000 -0.497696
s 1
f 2/1/1 1/2/1 3/3/1 4/4/1
f 6/1/2 8/4/2 7/3/2 5/2/2
f 10/1/2 9/2/2 11/3/2 12/4/2
f 14/1/1 16/4/1 15/3/1 13/2/1
f 18/1/3 17/2/3 19/3/3 20/4/3
f 22/1/4 24/4/4 23/3/4 21/2/4
f 26/1/5 25/2/5 27/3/5 28/4/5
f 30/1/6 32/4/6 31/3/6 29/2/6
f 40/5/7 41/6/7 33/7/7 34/8/7
f 52/9/8 43/10/9 38/11/10 50/12/11
f 44/13/12 52/9/8 50/12/11 35/14/13
f 138/5/14 137/6/14 140/7/14 139/8/14
f 48/5/15 49/6/15 42/7/15 47/8/15
f 36/15/16 46/16/17 45/17/18 51/18/19
f 37/19/20 36/15/16 51/18/19 39/20/21
f 35/14/13 50/12/11 36/15/16 37/19/20
f 50/12/11 38/11/10 46/16/17 36/15/16
f 64/9/22 62/12/23 56/11/24 58/10/25
f 59/13/26 53/14/27 62/12/23 64/9/22
f 54/15/28 63/18/29 60/17/30 61/16/31
f 55/19/32 57/20/33 63/18/29 54/15/28
f 53/14/27 55/19/32 54/15/28 62/12/23
f 62/12/23 54/15/28 61/16/31 56/11/24
f 76/9/34 70/10/35 68/11/36 74/12/37
f 71/13/38 76/9/34 74/12/37 65/14/39
f 66/15/40 73/16/41 72/17/42 75/18/43
f 67/19/44 66/15/40 75/18/43 69/20/45
f 65/14/39 74/12/37 66/15/40 67/19/44
f 74/12/37 68/11/36 73/16/41 66/15/40
f 88/9/46 86/12/47 80/11/48 82/10/49
f 83/13/50 77/14/51 86/12/47 88/9/46
f 78/15/52 87/18/53 84/17/54 85/16/55
f 79/19/56 81/20/57 87/18/53 78/15/52
f 77/14/51 79/19/56 78/15/52 86/12/47
f 86/12/47 78/15/52 85/16/55 80/11/48
f 100/9/58 94/10/59 92/11/60 98/12/61
f 95/13/62 100/9/58 98/12/61 89/14/63
f 90/15/64 97/16/65 96/17/66 99/18/67
f 91/19/68 90/15/64 99/18/67 93/20/69
f 89/14/63 98/12/61 90/15/64 91/19/68
f 98/12/61 92/11/60 97/16/65 90/15/64
f 112/9/70 110/12/71 104/11/72 106/10/73
f 107/13/74 101/14/75 110/12/71 112/9/70
f 102/15/76 111/18/77 108/17/78 109/16/79
f 103/19/80 105/20/81 111/18/77 102/15/76
f 101/14/75 103/19/80 102/15/76 110/12/71
f 110/12/71 102/15/76 109/16/79 104/11/72
f 124/9/82 118/10/83 116/11/84 122/12/85
f 119/13/86 124/9/82 122/12/85 113/14/87
f 114/15/88 121/16/89 120/17/90 123/18/91
f 115/19/92 114/15/88 123/18/91 117/20/93
f 113/14/87 122/12/85 114/15/88 115/19/92
f 122/12/85 116/11/84 121/16/89 114/15/88
f 136/9/94 134/12/95 128/11/96 130/10/97
f 131/13/98 125/14/99 134/12/95 136/9/94
f 126/15/100 135/18/101 132/17/102 133/16/103
f 127/19/104 129/20/105 135/18/101 126/15/100
f 125/14/99 127/19/104 126/15/100 134/12/95
f 134/12/95 126/15/100 133/16/103 128/11/96
f 143/5/106 142/8/106 141/7/106 144/6/106
f 150/5/107 151/8/107 152/7/107 149/6/107
f 147/5/108 146/8/108 145/7/108 148/6/108
f 154/21/109 153/22/109 155/23/109 156/24/109
f 158/21/110 160/24/110 159/23/110 157/22/110
f 163/5/111 164/6/111 161/7/111 162/8/111
f 170/5/112 169/6/112 172/7/112 171/8/112
f 167/5/113 168/6/113 165/7/113 166/8/113
f 175/5/114 174/8/114 173/7/114 176/6/114
f 182/5/115 183/8/115 184/7/115 181/6/115
f 179/5/116 178/8/116 177/7/116 180/6/116
f 186/21/117 185/22/117 187/23/117 188/24/117
f 190/21/118 192/24/118 191/23/118 189/22/118
f 195/5/119 196/6/119 193/7/119 194/8/119
f 202/5/120 201/6/120 204/7/120 203/8/120
f 199/5/121 200/6/121 197/7/121 198/8/121
f 207/5/122 206/8/122 205/7/122 208/6/122
f 214/5/123 215/8/123 216/7/123 213/6/123
f 211/5/124 210/8/124 209/7/124 212/6/124
f 218/21/125 217/22/125 219/23/125 220/24/125
f 222/21/126 224/24/126 223/23/126 221/22/126
