# Blender v2.66 (sub 0) OBJ File: 'stairs2.blend'
# www.blender.org
o Cube.002
v -0.958095 -0.640968 0.105344
v -0.958095 -0.640968 -0.105344
v 0.958095 -0.640968 -0.105344
v 0.958095 -0.640968 0.105344
v -0.958095 0.640968 0.105344
v -0.958095 0.640968 -0.105344
v 0.958095 0.640968 -0.105344
v 0.958095 0.640968 0.105344
v -0.201311 -1.621415 -0.098484
v -0.201311 -1.621415 -0.309172
v 0.201311 -1.621415 -0.309172
v 0.201311 -1.621415 -0.098484
v -0.201311 -0.017730 -0.098484
v -0.201311 -0.017730 -0.309172
v 0.201311 -0.017730 -0.309172
v 0.201311 -0.017730 -0.098484
vt 0.005082 0.271555
vt 0.005082 0.005341
vt 0.994918 0.005341
vt 0.994918 0.271555
vt 0.244192 0.973154
vt 0.153163 0.973154
vt 0.153163 0.306396
vt 0.244192 0.306396
vt 0.009507 0.282413
vt 0.990493 0.282413
vt 0.990493 0.992478
vt 0.009507 0.992478
vn -0.000000 -1.000000 0.000000
vn -0.000000 1.000000 0.000000
vn -1.000000 0.000000 0.000000
vn 1.000000 -0.000000 0.000000
vn 0.000000 0.000000 -1.000000
vn 0.000000 -0.000000 1.000000
s off
f 1/1/1 2/2/1 3/3/1 4/4/1
f 8/1/2 7/2/2 6/3/2 5/4/2
f 13/1/3 14/2/3 10/3/3 9/4/3
f 15/1/4 16/2/4 12/3/4 11/4/4
f 9/1/1 10/2/1 11/3/1 12/4/1
f 16/1/2 15/2/2 14/3/2 13/4/2
f 5/5/3 6/6/3 2/7/3 1/8/3
f 6/9/5 7/10/5 3/11/5 2/12/5
f 7/5/4 8/6/4 4/7/4 3/8/4
f 8/9/6 5/10/6 1/11/6 4/12/6
f 14/1/5 15/2/5 11/3/5 10/4/5
f 16/1/6 13/2/6 9/3/6 12/4/6
